<?xml version="1.0" encoding="UTF-8"?>
<svg xmlns="http://www.w3.org/2000/svg" width="300" height="400" viewBox="0 0 300 400">
  <path
    transform="translate(150, 200) scale(0.3414, -0.3414) translate(-499.5, -370.5)"
    fill="#2255aa"
    d="M215 319V74H782V319ZM782 371V611H215V371ZM351 663Q368 693 380.0 716.5Q392 740 400.5 758.5Q409 777 414.5 791.5Q420 806 423 819Q445 807 462.0 800.5Q479 794 502 789Q515 786 515.0 779.0Q515 772 498 767Q493 765 487.0 761.0Q481 757 471.0 745.5Q461 734 447.0 714.5Q433 695 413 663H648Q676 663 706.5 663.5Q737 664 764.5 665.0Q792 666 814.5 667.0Q837 668 851 670Q849 650 847.5 631.0Q846 612 846 591V69Q846 49 846.5 28.0Q847 7 847.5 -11.5Q848 -30 849.0 -44.5Q850 -59 851 -68H782V22H215V-78H148Q150 -55 151.5 -15.0Q153 25 153 82V591Q153 612 151.5 632.5Q150 653 148 670Q171 667 223.5 665.0Q276 663 351 663Z"
  />
</svg>
